<?xml version="1.0" encoding="utf-8"?><svg xml:space="preserve" viewBox="0 0 100 100" y="0" x="0" xmlns="http://www.w3.org/2000/svg" id="圖層_1" version="1.1" width="200px" height="200px" xmlns:xlink="http://www.w3.org/1999/xlink" style="width:100%;height:100%;animation-play-state:paused" ><g class="ldl-scale" style="transform-origin:50% 50% 0px;transform:rotate(0deg) scale(0.8);animation-play-state:paused" ><path fill="#b5b5b5" clip-rule="evenodd" fill-rule="evenodd" d="M75.8 34.9c.6-1.8.9-3.8.9-5.8 0-10.6-8.6-19.1-19.1-19.1-7.3 0-13.7 4.1-16.9 10.1-1.2-.4-2.5-.6-3.8-.6-7 0-12.7 5.7-12.7 12.7 0 .9.1 1.7.3 2.6-6.5 1-11.4 6.6-11.4 13.4 0 7.5 6.1 13.5 13.5 13.5h47c7.4.1 13.4-6 13.4-13.5 0-6.7-4.8-12.2-11.2-13.3z" style="fill:rgb(181, 181, 181);animation-play-state:paused" ></path>
<path fill="#f8b26a" d="M45.6 69.9l15.7-15.6c.8-.8.2-2.2-.9-2.2H41c-1.3 0-2.5.7-3.1 1.9L24.3 77.9c-.2.4.1.9.6.9l21.6.2-5.1 8.7c-.4.7-.2 1.5.3 2 .6.5 1.4.5 2 0L65.4 71c.5-.4.2-1.2-.4-1.1H45.6z" style="fill:rgb(248, 178, 106);animation-play-state:paused" ></path>
<metadata xmlns:d="https://loading.io/stock/" style="animation-play-state:paused" ><d:name style="animation-play-state:paused" >thunder</d:name>
<d:tags style="animation-play-state:paused" >rainy,lightning,fall,storm,thunder,thunder,weather</d:tags>
<d:license style="animation-play-state:paused" >pro</d:license>
<d:slug style="animation-play-state:paused" >vm96je</d:slug></metadata></g><!-- generated by https://loading.io/ --></svg>